<?xml version="1.0" encoding="UTF-8" standalone="no"?>
<!-- Created with Inkscape (http://www.inkscape.org/) -->

<svg
   width="53.377323mm"
   height="20.277437mm"
   viewBox="0 0 53.377323 20.277437"
   version="1.1"
   id="svg1"
   xmlns="http://www.w3.org/2000/svg"
   xmlns:svg="http://www.w3.org/2000/svg">
  <defs
     id="defs1" />
  <g
     id="layer1"
     transform="translate(-49.489328,-53.300864)">
    <path
       style="opacity:1;fill:#ffffff;fill-opacity:1;stroke:none;stroke-width:2.11667;stroke-linecap:round;stroke-linejoin:round"
       d="m 55.839179,64.235114 c -0.4629,-1.789349 -0.229963,-4.792469 1.883898,-6.348365 1.805512,-1.328938 4.909532,-0.649343 6.446229,-0.52767 0.434042,-1.484319 2.569213,-3.798047 5.714285,-4.036345 4.515185,-0.34211 4.705426,3.445616 6.20607,3.269233 2.201532,-2.201534 5.095572,-3.830227 10.011635,-2.505924 2.365504,0.637226 3.490865,4.183632 3.512113,4.822931 0.72169,0.31965 3.788549,-0.999722 5.75077,0.2375 2.69807,1.701191 2.228958,3.677671 2.690155,5.21198 1.741784,0.371854 5.998886,1.78532 4.497026,6.290907 -0.55309,1.659263 -5.625949,1.760243 -7.232845,1.937366 -13.523883,1.490695 -29.989252,1.233661 -43.267889,-0.322894 -4.837094,-0.567016 -2.402721,-11.124357 3.788553,-8.028719 z"
       id="path1" />
  </g>
</svg>
