<?xml version="1.0" encoding="UTF-8" standalone="no"?>
<!-- Created with Inkscape (http://www.inkscape.org/) -->

<svg
   width="53.317028mm"
   height="19.119635mm"
   viewBox="0 0 53.317028 19.119635"
   version="1.1"
   id="svg1"
   xmlns="http://www.w3.org/2000/svg"
   xmlns:svg="http://www.w3.org/2000/svg">
  <defs
     id="defs1" />
  <g
     id="layer1"
     transform="translate(-48.088262,-80.709837)">
    <path
       id="path2"
       style="opacity:1;fill:#ffffff;fill-opacity:1;stroke:none;stroke-width:2.117;stroke-linecap:round;stroke-linejoin:round;stroke-dasharray:none"
       d="m 66.747547,80.709841 c -0.427502,5.06e-4 -0.913028,0.04755 -1.468644,0.155546 -1.724334,0.335165 -2.987972,2.907145 -3.422014,4.391463 -1.536695,-0.121673 -3.957211,-1.039431 -5.703528,0.366386 -1.371201,1.103842 -2.28191,3.073922 -1.81901,4.863269 -5.771505,0.488492 -8.626005,7.461435 -3.788916,8.02845 13.278624,1.556555 29.744291,1.813675 43.26816,0.322978 1.606894,-0.177123 6.744135,0.04489 7.297225,-1.614372 1.50186,-4.505582 -3.14267,-5.305836 -4.884452,-5.677689 0.862671,-2.309255 -0.327357,-3.657273 -2.076359,-4.889108 -1.896529,-1.335738 -5.319803,-1.176899 -6.041492,-1.496549 -0.495958,-1.124442 -0.893811,-2.353744 -3.309876,-2.564185 -2.199132,-0.191546 -3.116266,1.065146 -4.585249,1.910478 -1.261257,-1.147613 -0.954386,-3.248588 -3.556373,-3.49126 -2.432952,-0.226907 -3.261185,-0.373736 -5.462715,1.827796 -1.313062,0.154335 -1.454247,-2.136748 -4.446757,-2.133203 z" />
  </g>
</svg>
